# xmcd
#
# Track frame offsets:
#	150
#	20341
#	35082
#	52668
#	71119
#	87863
#	109147
#	129311
#	144054
#	161640
#	180139
#	196878
#
# Disc length: 2906 seconds
#
# Revision: 1
# Processed by: cddbd v1.5.2PL0 Copyright (c) Steve Scherf et al.
# Submitted via: audiograbber 1.83.01
#
DISCID=910b580c
DTITLE=Chartbusters - CB20602
DYEAR=1900
DGENRE=
TTITLE0=Lambert, Miranda - Bring Me Down (v)
TTITLE1=Lambert, Miranda - Kerosene (v)
TTITLE2=Lambert, Miranda - Me And Charlie Talking (v)
TTITLE3=Lambert, Miranda - New Strings (v)
TTITLE4=Lambert, Miranda - What About Georgia (v)
TTITLE5=Lambert, Miranda - Greyhound Bound For Nowhere (v)
TTITLE6=Lambert, Miranda - Bring Me Down
TTITLE7=Lambert, Miranda - Kerosene
TTITLE8=Lambert, Miranda - Me And Charlie Talking
TTITLE9=Lambert, Miranda - New Strings
TTITLE10=Lambert, Miranda - What About Georgia
TTITLE11=Lambert, Miranda - Greyhound Bound For Nowhere
EXTD=
EXTT0=
EXTT1=
EXTT2=
EXTT3=
EXTT4=
EXTT5=
EXTT6=
EXTT7=
EXTT8=
EXTT9=
EXTT10=
EXTT11=
PLAYORDER=
